<mxfile host="app.diagrams.net" modified="2023-11-26T10:09:54.351Z" agent="Mozilla/5.0 (Windows NT 10.0; Win64; x64; rv:120.0) Gecko/20100101 Firefox/120.0" etag="UpjxK2CORfEghjtFgLde" version="22.1.4" type="device">
  <diagram id="C5RBs43oDa-KdzZeNtuy" name="Page-1">
    <mxGraphModel dx="2261" dy="902" grid="1" gridSize="10" guides="1" tooltips="1" connect="1" arrows="1" fold="1" page="1" pageScale="1" pageWidth="827" pageHeight="1169" math="0" shadow="0">
      <root>
        <mxCell id="WIyWlLk6GJQsqaUBKTNV-0" />
        <mxCell id="WIyWlLk6GJQsqaUBKTNV-1" parent="WIyWlLk6GJQsqaUBKTNV-0" />
        <mxCell id="3KvujkYWrIo-BmdRtZlr-1" value="ActionState::class" style="swimlane;fontStyle=0;childLayout=stackLayout;horizontal=1;startSize=30;horizontalStack=0;resizeParent=1;resizeParentMax=0;resizeLast=0;collapsible=1;marginBottom=0;whiteSpace=wrap;html=1;" vertex="1" parent="WIyWlLk6GJQsqaUBKTNV-1">
          <mxGeometry x="-280" y="40" width="280" height="180" as="geometry" />
        </mxCell>
        <mxCell id="3KvujkYWrIo-BmdRtZlr-2" value="&lt;div&gt;-checkActionisValid&lt;/div&gt;" style="text;strokeColor=none;fillColor=none;align=left;verticalAlign=middle;spacingLeft=4;spacingRight=4;overflow=hidden;points=[[0,0.5],[1,0.5]];portConstraint=eastwest;rotatable=0;whiteSpace=wrap;html=1;" vertex="1" parent="3KvujkYWrIo-BmdRtZlr-1">
          <mxGeometry y="30" width="280" height="30" as="geometry" />
        </mxCell>
        <mxCell id="3KvujkYWrIo-BmdRtZlr-3" value="await.action.execute()::void" style="text;strokeColor=none;fillColor=none;align=left;verticalAlign=middle;spacingLeft=4;spacingRight=4;overflow=hidden;points=[[0,0.5],[1,0.5]];portConstraint=eastwest;rotatable=0;whiteSpace=wrap;html=1;" vertex="1" parent="3KvujkYWrIo-BmdRtZlr-1">
          <mxGeometry y="60" width="280" height="30" as="geometry" />
        </mxCell>
        <mxCell id="3KvujkYWrIo-BmdRtZlr-4" value="&lt;div&gt;if initStep: wait 1 secomd&lt;/div&gt;" style="text;strokeColor=none;fillColor=none;align=left;verticalAlign=middle;spacingLeft=4;spacingRight=4;overflow=hidden;points=[[0,0.5],[1,0.5]];portConstraint=eastwest;rotatable=0;whiteSpace=wrap;html=1;" vertex="1" parent="3KvujkYWrIo-BmdRtZlr-1">
          <mxGeometry y="90" width="280" height="90" as="geometry" />
        </mxCell>
        <mxCell id="3KvujkYWrIo-BmdRtZlr-5" value="actionTemplate::class" style="swimlane;fontStyle=0;childLayout=stackLayout;horizontal=1;startSize=30;horizontalStack=0;resizeParent=1;resizeParentMax=0;resizeLast=0;collapsible=1;marginBottom=0;whiteSpace=wrap;html=1;" vertex="1" parent="WIyWlLk6GJQsqaUBKTNV-1">
          <mxGeometry x="190" y="40" width="280" height="60" as="geometry" />
        </mxCell>
        <mxCell id="3KvujkYWrIo-BmdRtZlr-6" value="await executeAction::void" style="text;strokeColor=none;fillColor=none;align=left;verticalAlign=middle;spacingLeft=4;spacingRight=4;overflow=hidden;points=[[0,0.5],[1,0.5]];portConstraint=eastwest;rotatable=0;whiteSpace=wrap;html=1;" vertex="1" parent="3KvujkYWrIo-BmdRtZlr-5">
          <mxGeometry y="30" width="280" height="30" as="geometry" />
        </mxCell>
        <mxCell id="3KvujkYWrIo-BmdRtZlr-9" value="" style="endArrow=classic;html=1;rounded=0;entryX=0.332;entryY=0.017;entryDx=0;entryDy=0;entryPerimeter=0;exitX=1;exitY=0.5;exitDx=0;exitDy=0;" edge="1" parent="WIyWlLk6GJQsqaUBKTNV-1" source="3KvujkYWrIo-BmdRtZlr-3" target="3KvujkYWrIo-BmdRtZlr-5">
          <mxGeometry width="50" height="50" relative="1" as="geometry">
            <mxPoint x="60" y="200" as="sourcePoint" />
            <mxPoint x="440" y="250" as="targetPoint" />
          </mxGeometry>
        </mxCell>
        <mxCell id="3KvujkYWrIo-BmdRtZlr-10" value="&lt;div&gt;baseAction::class&lt;/div&gt;" style="swimlane;fontStyle=0;childLayout=stackLayout;horizontal=1;startSize=30;horizontalStack=0;resizeParent=1;resizeParentMax=0;resizeLast=0;collapsible=1;marginBottom=0;whiteSpace=wrap;html=1;" vertex="1" parent="WIyWlLk6GJQsqaUBKTNV-1">
          <mxGeometry x="560" y="40" width="280" height="160" as="geometry" />
        </mxCell>
        <mxCell id="3KvujkYWrIo-BmdRtZlr-14" value="await action::void" style="text;strokeColor=none;fillColor=none;align=left;verticalAlign=middle;spacingLeft=4;spacingRight=4;overflow=hidden;points=[[0,0.5],[1,0.5]];portConstraint=eastwest;rotatable=0;whiteSpace=wrap;html=1;" vertex="1" parent="3KvujkYWrIo-BmdRtZlr-10">
          <mxGeometry y="30" width="280" height="40" as="geometry" />
        </mxCell>
        <mxCell id="3KvujkYWrIo-BmdRtZlr-11" value="loadedAction::void&lt;br&gt;#&lt;span style=&quot;white-space: pre;&quot;&gt;&#x9;&lt;/span&gt;here are all the animation executions and stuff" style="text;strokeColor=none;fillColor=none;align=left;verticalAlign=middle;spacingLeft=4;spacingRight=4;overflow=hidden;points=[[0,0.5],[1,0.5]];portConstraint=eastwest;rotatable=0;whiteSpace=wrap;html=1;" vertex="1" parent="3KvujkYWrIo-BmdRtZlr-10">
          <mxGeometry y="70" width="280" height="90" as="geometry" />
        </mxCell>
        <mxCell id="3KvujkYWrIo-BmdRtZlr-16" value="" style="curved=1;endArrow=classic;html=1;rounded=0;entryX=1;entryY=0.611;entryDx=0;entryDy=0;entryPerimeter=0;" edge="1" parent="3KvujkYWrIo-BmdRtZlr-10" source="3KvujkYWrIo-BmdRtZlr-14" target="3KvujkYWrIo-BmdRtZlr-11">
          <mxGeometry width="50" height="50" relative="1" as="geometry">
            <mxPoint x="-170" y="260" as="sourcePoint" />
            <mxPoint x="-120" y="210" as="targetPoint" />
            <Array as="points">
              <mxPoint x="460" y="80" />
              <mxPoint x="460" y="140" />
            </Array>
          </mxGeometry>
        </mxCell>
        <mxCell id="3KvujkYWrIo-BmdRtZlr-15" value="" style="endArrow=classic;html=1;rounded=0;exitX=1;exitY=0.5;exitDx=0;exitDy=0;" edge="1" parent="WIyWlLk6GJQsqaUBKTNV-1" source="3KvujkYWrIo-BmdRtZlr-6" target="3KvujkYWrIo-BmdRtZlr-14">
          <mxGeometry width="50" height="50" relative="1" as="geometry">
            <mxPoint x="390" y="300" as="sourcePoint" />
            <mxPoint x="440" y="250" as="targetPoint" />
          </mxGeometry>
        </mxCell>
        <mxCell id="3KvujkYWrIo-BmdRtZlr-17" value="loop läuft dann weiter wenn das letzte await statment ausläfut und das läuft aus wenn in der childAction::class die loaded action ausgeführt wird, soblad diese eine feedback gibt geht der loop weiter " style="whiteSpace=wrap;html=1;aspect=fixed;" vertex="1" parent="WIyWlLk6GJQsqaUBKTNV-1">
          <mxGeometry x="-270" y="455" width="200" height="200" as="geometry" />
        </mxCell>
        <mxCell id="3KvujkYWrIo-BmdRtZlr-18" value="&lt;div&gt;solve with BocCollider:&lt;/div&gt;&lt;div&gt;.animation gets node or so with info of damage,&lt;/div&gt;&lt;div&gt;-or return variable starts damage calc when hit&lt;/div&gt;&lt;div&gt;-alle schiffe brauchen eine collisionbox und auch alle waffen&lt;/div&gt;&lt;div&gt;-maybee sehr iffy&lt;/div&gt;&lt;div&gt;-nicht so schwer zu iplimentieren&lt;/div&gt;&lt;div&gt;-man kann ez intervall schaden machen&lt;/div&gt;&lt;div&gt;-muss logic für schaden an schiffe packen (momentan an action)&lt;br&gt;&lt;/div&gt;&lt;div&gt;&lt;br&gt;&lt;/div&gt;&lt;div&gt;-wee need to check what happens if a ship with a action that is in progress gets freed&lt;br&gt;&lt;/div&gt;" style="whiteSpace=wrap;html=1;aspect=fixed;" vertex="1" parent="WIyWlLk6GJQsqaUBKTNV-1">
          <mxGeometry x="-40" y="455" width="280" height="280" as="geometry" />
        </mxCell>
        <mxCell id="3KvujkYWrIo-BmdRtZlr-19" value="&lt;div&gt;solve with extra action for damage&lt;/div&gt;&lt;div&gt;when a ship executes a action that fires but need time it create a extra actuon that only calls the execute damage function a defined second later&lt;/div&gt;&lt;div&gt;-action must work even when the cause os no longer exitend&lt;/div&gt;&lt;div&gt;-needs a more complicated action validation&lt;/div&gt;&lt;div&gt;-maybee needs a link to the action start animation&lt;/div&gt;&lt;div&gt;-maybee needs to diffren function calls in action forr the two states&lt;/div&gt;&lt;div&gt;&amp;nbsp;-more eazy to controll what will happen when the action is executed and the ship is queued free because the actions are seperated, only animation gets queued free&lt;br&gt;&lt;/div&gt;&lt;div&gt;&lt;br&gt;&lt;/div&gt;&lt;div&gt;-&lt;span style=&quot;white-space: pre;&quot;&gt;&#x9;&lt;/span&gt;wie mache ich actions die keinen node haben?&lt;/div&gt;" style="whiteSpace=wrap;html=1;aspect=fixed;" vertex="1" parent="WIyWlLk6GJQsqaUBKTNV-1">
          <mxGeometry x="290" y="455" width="285" height="285" as="geometry" />
        </mxCell>
        <mxCell id="3KvujkYWrIo-BmdRtZlr-20" value="&lt;div&gt;action::child&lt;/div&gt;" style="swimlane;fontStyle=0;childLayout=stackLayout;horizontal=1;startSize=30;horizontalStack=0;resizeParent=1;resizeParentMax=0;resizeLast=0;collapsible=1;marginBottom=0;whiteSpace=wrap;html=1;" vertex="1" parent="WIyWlLk6GJQsqaUBKTNV-1">
          <mxGeometry x="575" y="270" width="230" height="60" as="geometry" />
        </mxCell>
        <mxCell id="3KvujkYWrIo-BmdRtZlr-21" value="loadedAction() : execute and damage calculation" style="text;strokeColor=none;fillColor=none;align=left;verticalAlign=middle;spacingLeft=4;spacingRight=4;overflow=hidden;points=[[0,0.5],[1,0.5]];portConstraint=eastwest;rotatable=0;whiteSpace=wrap;html=1;" vertex="1" parent="3KvujkYWrIo-BmdRtZlr-20">
          <mxGeometry y="30" width="230" height="30" as="geometry" />
        </mxCell>
        <mxCell id="3KvujkYWrIo-BmdRtZlr-24" value="" style="endArrow=classic;html=1;rounded=0;exitX=0.489;exitY=1.011;exitDx=0;exitDy=0;exitPerimeter=0;entryX=0.5;entryY=0;entryDx=0;entryDy=0;" edge="1" parent="WIyWlLk6GJQsqaUBKTNV-1" source="3KvujkYWrIo-BmdRtZlr-11" target="3KvujkYWrIo-BmdRtZlr-20">
          <mxGeometry width="50" height="50" relative="1" as="geometry">
            <mxPoint x="390" y="390" as="sourcePoint" />
            <mxPoint x="440" y="340" as="targetPoint" />
          </mxGeometry>
        </mxCell>
        <mxCell id="3KvujkYWrIo-BmdRtZlr-25" value="continue when everything is called in the action" style="endArrow=classic;html=1;rounded=0;exitX=0;exitY=0.5;exitDx=0;exitDy=0;entryX=1.011;entryY=0.8;entryDx=0;entryDy=0;entryPerimeter=0;" edge="1" parent="WIyWlLk6GJQsqaUBKTNV-1" source="3KvujkYWrIo-BmdRtZlr-21" target="3KvujkYWrIo-BmdRtZlr-3">
          <mxGeometry width="50" height="50" relative="1" as="geometry">
            <mxPoint x="390" y="390" as="sourcePoint" />
            <mxPoint x="440" y="340" as="targetPoint" />
          </mxGeometry>
        </mxCell>
        <mxCell id="3KvujkYWrIo-BmdRtZlr-26" value="&lt;div&gt;actionAnimationCall&lt;/div&gt;" style="swimlane;fontStyle=0;childLayout=stackLayout;horizontal=1;startSize=30;horizontalStack=0;resizeParent=1;resizeParentMax=0;resizeLast=0;collapsible=1;marginBottom=0;whiteSpace=wrap;html=1;" vertex="1" parent="WIyWlLk6GJQsqaUBKTNV-1">
          <mxGeometry x="740" y="390" width="140" height="60" as="geometry" />
        </mxCell>
        <mxCell id="3KvujkYWrIo-BmdRtZlr-27" value="fire() -&amp;gt; fires animation" style="text;strokeColor=none;fillColor=none;align=left;verticalAlign=middle;spacingLeft=4;spacingRight=4;overflow=hidden;points=[[0,0.5],[1,0.5]];portConstraint=eastwest;rotatable=0;whiteSpace=wrap;html=1;" vertex="1" parent="3KvujkYWrIo-BmdRtZlr-26">
          <mxGeometry y="30" width="140" height="30" as="geometry" />
        </mxCell>
        <mxCell id="3KvujkYWrIo-BmdRtZlr-30" value="" style="endArrow=classic;html=1;rounded=0;exitX=0.504;exitY=0.967;exitDx=0;exitDy=0;exitPerimeter=0;entryX=0;entryY=0.5;entryDx=0;entryDy=0;" edge="1" parent="WIyWlLk6GJQsqaUBKTNV-1" source="3KvujkYWrIo-BmdRtZlr-21" target="3KvujkYWrIo-BmdRtZlr-27">
          <mxGeometry width="50" height="50" relative="1" as="geometry">
            <mxPoint x="707" y="211" as="sourcePoint" />
            <mxPoint x="700" y="280" as="targetPoint" />
          </mxGeometry>
        </mxCell>
        <mxCell id="3KvujkYWrIo-BmdRtZlr-31" value="&lt;div&gt;safestFirstMethod&lt;/div&gt;&lt;div&gt;-wait for every execution...&lt;/div&gt;&lt;div&gt;-no visible same turn action&lt;/div&gt;&lt;div&gt;-problem with fireing actions from queued freed ships&lt;/div&gt;&lt;div&gt;-no waiting for explosion , it will only be trigered when the explosion happens&lt;br&gt;&lt;/div&gt;" style="whiteSpace=wrap;html=1;aspect=fixed;" vertex="1" parent="WIyWlLk6GJQsqaUBKTNV-1">
          <mxGeometry x="610" y="455" width="285" height="285" as="geometry" />
        </mxCell>
      </root>
    </mxGraphModel>
  </diagram>
</mxfile>
